<?xml version="1.0" encoding="UTF-8"?>
<svg id="Capa_2" data-name="Capa 2" xmlns="http://www.w3.org/2000/svg" viewBox="0 0 791.98 302.59">
  <defs>
    <style>
      .cls-1 {
        fill: none;
        stroke: #182636;
        stroke-miterlimit: 10;
        stroke-width: 3px;
      }
    </style>
  </defs>
  <g id="Capa_1-2" data-name="Capa 1">
    <path class="cls-1" d="M398.27,19.1C320.29-2.37,236.99-4.24,158.12,13.73c-44.08,10.04-87.37,26.53-123.21,54.07C14.01,83.86-5.58,109.98,4,134.53c9.61,24.61,41.35,30.42,67.75,31.19,198.69,5.8,398.39-63.01,593.76-26.41,35.37,6.63,71.02,17.13,99.57,39.03,14.44,11.08,27.65,27.57,25.07,45.59-3.05,21.33-26.06,33.33-46.89,38.85-66.24,17.53-136.18,4.9-203.92-5.35-56.4-8.54-113.06-15.36-169.88-20.47-44.44-3.99-89.07-6.93-133.67-5.44-25.84.86-52.83,3.61-74.51,17.7-12.9,8.39-23.64,26.4-13.97,38.36,4.96,6.14,13.42,7.95,21.23,9.12,19.86,3,39.96,4.47,60.05,4.38"/>
  </g>
</svg>