<?xml version="1.0" encoding="UTF-8"?>
<svg id="Capa_2" data-name="Capa 2" xmlns="http://www.w3.org/2000/svg" viewBox="0 0 236.61 218.41">
  <defs>
    <style>
      .cls-1 {
        fill: #182636;
        stroke: #182636;
        stroke-miterlimit: 10;
      }
    </style>
  </defs>
  <g id="Capa_1-2" data-name="Capa 1">
    <g>
      <path class="cls-1" d="M132.09,187.27c0,9.5-.03,18.99.03,28.49,0,1.3-.31,1.68-1.65,1.66-7.76-.07-15.53-.06-23.3,0-1.26,0-1.7-.23-1.69-1.63.06-18.83,0-37.65.12-56.48.01-2.05-.83-2.92-2.44-3.51-.74-.27-1.44-.57-2.06-1.07-1.55-1.24-3.15-1.5-4.83-.21-2.28,1.75-5,2.69-7.68,3.44-5.84,1.63-11.75,2-17.8.65-6.36-1.43-11.97-4.2-16.77-8.51-4.76-4.27-8.26-9.43-10.27-15.59-1.94-5.95-2.34-11.9-1.28-18.07,1.1-6.38,3.72-11.9,7.83-16.85,2.27-2.73,4.76-5.15,7.77-6.99,1.6-.98.74-2.27.42-3.22-1.86-5.49-2.16-11.01-1.27-16.74,1.43-9.21,5.84-16.58,12.9-22.51,3.52-2.96,7.41-5.24,11.87-6.46,1.11-.3.88-1.23.75-1.93-.42-2.27-.38-4.56-.29-6.84.24-6.04,2-11.56,5.08-16.79,3.17-5.38,7.5-9.52,12.77-12.64,4.19-2.48,8.77-4.01,13.66-4.66,5.98-.79,11.8-.13,17.39,1.87,3.22,1.15,6.22,2.87,9.04,4.96,3.12,2.31,5.77,4.97,8.05,8.05,3.55,4.8,5.58,10.21,6.41,16.11.48,3.45.6,6.88-.04,10.31-.19,1,.13,1.36,1.03,1.62,3.56,1.02,6.69,2.85,9.74,4.95,3.45,2.37,6.28,5.33,8.66,8.67,2.06,2.89,3.67,6.08,4.75,9.52,1.19,3.79,2,7.64,1.95,11.59-.04,3.77-.58,7.5-1.92,11.07-.77,2.05-.54,2.29,1.19,3.52,3,2.14,5.62,4.66,7.92,7.58,1.89,2.39,3.43,4.94,4.59,7.71,2.97,7.08,3.88,14.37,2.29,21.97-.86,4.11-2.35,7.96-4.49,11.5-1.97,3.25-4.45,6.13-7.39,8.61-1.9,1.6-3.86,3.05-6.02,4.25-7.74,4.29-15.91,5.78-24.67,4.07-4.58-.89-8.81-2.57-12.74-5.06-.4-.25-.7-.36-1.2-.07-1.72.99-3.46,1.99-5.27,2.79-1.03.45-1.21,1.05-1.21,2.04.03,9.61.02,19.22.02,28.83ZM159.08,154.15c4.04-.15,7.79-.91,11.49-2.25,5.39-1.96,9.72-5.38,13.22-9.69,2.9-3.57,4.87-7.74,5.82-12.41.79-3.89,1.1-7.68.48-11.58-.75-4.7-2.39-9.07-5.07-12.99-3.09-4.53-7.2-7.98-12.09-10.37-1.66-.81-1.25-1.62-.74-2.65,2.78-5.55,3.96-11.37,3.15-17.56-.54-4.09-1.71-8-3.75-11.59-1.73-3.05-3.89-5.83-6.56-8.12-2.97-2.54-6.23-4.63-10-5.85-1.84-.6-3.6-1.42-5.59-1.51-.45-.02-1.4-.06-.96-1.08.83-1.92,1-3.96,1.23-6,.4-3.57.24-7.13-.53-10.62-.91-4.09-2.59-7.89-5.1-11.24-2.56-3.42-5.67-6.32-9.43-8.47-3.44-1.96-7.09-3.21-11.01-3.89-4.22-.74-8.38-.47-12.43.52-4.33,1.06-8.34,2.97-11.87,5.89-4.96,4.11-8.45,9.07-10.32,15.26-1.81,5.99-1.77,11.93-.06,17.88.38,1.31-.02,1.72-1.16,1.88-4.62.64-8.73,2.49-12.48,5.21-6.98,5.05-11.21,11.72-12.73,20.28-1.25,7.05.12,13.53,3.13,19.81.43.9.33,1.18-.51,1.6-4.88,2.44-8.96,5.78-12.21,10.25-3.64,5.02-5.43,10.58-5.74,16.67-.27,5.29.81,10.29,3.14,15.11,2.11,4.37,5.1,7.97,8.83,10.89,3.97,3.11,8.54,5.04,13.57,6.04,4.96.98,9.78.56,14.49-.79,3.75-1.08,7.23-2.92,10.3-5.41.69-.56,1.14-.57,1.86-.03,3.82,2.86,8.01,4.91,12.71,6.02,5.31,1.26,10.51.86,15.63-.58,3.45-.97,6.72-2.54,9.51-4.86,1.36-1.13,2.53-1.12,3.71.11.54.57,1.23.87,1.86,1.29,4.96,3.27,10.47,4.61,16.2,4.85ZM126.73,196.25h0c0-4.8-.02-9.6.02-14.41,0-1-.23-1.41-1.3-1.35-1.39.08-2.79.02-4.19.02-4,0-3.96,0-3.94-4.05,0-1.02.24-1.36,1.29-1.32,2.29.08,4.58-.01,6.87.05.94.02,1.26-.26,1.25-1.23-.04-4.75-.04-9.49,0-14.24,0-.93-.29-1.2-1.16-1-4.53,1.04-9.06,1.04-13.58-.01-.79-.18-1.1-.05-1.09.84.02,9.21.02,18.43,0,27.64,0,.76.2,1.06,1.03,1.11,2.79.17,2.79.21,2.79,2.98,0,.5-.03,1.01,0,1.51.03.66-.28.81-.9.87-2.91.25-2.91.27-2.91,3.24,0,.39,0,.78,0,1.17q0,3.46,3.55,3.44,2.88-.02,2.88,2.87,0,2.54-2.55,2.56c-3.95.03-3.9.03-3.93,3.95,0,1.01.34,1.2,1.24,1.19,4.41-.03,8.82-.04,13.23.02,1.1.01,1.42-.3,1.41-1.41-.06-4.8-.03-9.6-.03-14.41Z"/>
      <path class="cls-1" d="M117.35,167.27c0,.39,0,.77,0,1.16.02.84.19,1.62-1.2,1.54-1.16-.07-1.58-.41-1.45-1.55.08-.71.06-1.44.01-2.15-.07-1.05,0-1.78,1.43-1.76,1.49.01,1.18.93,1.2,1.77,0,.33,0,.66,0,1Z"/>
      <path class="cls-1" d="M172.37,187.76c0,9.5-.03,18.99.03,28.49,0,1.3-.31,1.68-1.65,1.66-7.76-.07-15.53-.06-23.3,0-1.26,0-1.7-.23-1.69-1.63.06-18.83,0-37.65.12-56.48.01-2.05-.83-2.92-2.44-3.51-.74-.27-1.44-.57-2.06-1.07-1.55-1.24-3.15-1.5-4.83-.21-2.28,1.75-5,2.69-7.68,3.44-5.84,1.63-11.75,2-17.8.65-6.36-1.43-11.97-4.2-16.77-8.51-4.76-4.27-8.26-9.43-10.27-15.59-1.94-5.95-2.34-11.9-1.28-18.07,1.1-6.38,3.72-11.9,7.83-16.85,2.27-2.73,4.76-5.15,7.77-6.99,1.6-.98.74-2.27.42-3.22-1.86-5.49-2.16-11.01-1.27-16.74,1.43-9.21,5.84-16.58,12.9-22.51,3.52-2.96,7.41-5.24,11.87-6.46,1.11-.3.88-1.23.75-1.93-.42-2.27-.38-4.56-.29-6.84.24-6.04,2-11.56,5.08-16.79,3.17-5.38,7.5-9.52,12.77-12.64,4.19-2.48,8.77-4.01,13.66-4.66,5.98-.79,11.8-.13,17.39,1.87,3.22,1.15,6.22,2.87,9.04,4.96,3.12,2.31,5.77,4.97,8.05,8.05,3.55,4.8,5.58,10.21,6.41,16.11.48,3.45.6,6.88-.04,10.31-.19,1,.13,1.36,1.03,1.62,3.56,1.02,6.69,2.85,9.74,4.95,3.45,2.37,6.28,5.33,8.66,8.67,2.06,2.89,3.67,6.08,4.75,9.52,1.19,3.79,2,7.64,1.95,11.59-.04,3.77-.58,7.5-1.92,11.07-.77,2.05-.54,2.29,1.19,3.52,3,2.14,5.62,4.66,7.92,7.58,1.89,2.39,3.43,4.94,4.59,7.71,2.97,7.08,3.88,14.37,2.29,21.97-.86,4.11-2.35,7.96-4.49,11.5-1.97,3.25-4.45,6.13-7.39,8.61-1.9,1.6-3.86,3.05-6.02,4.25-7.74,4.29-15.91,5.78-24.67,4.07-4.58-.89-8.81-2.57-12.74-5.06-.4-.25-.7-.36-1.2-.07-1.72.99-3.46,1.99-5.27,2.79-1.03.45-1.21,1.05-1.21,2.04.03,9.61.02,19.22.02,28.83ZM199.36,154.63c4.04-.15,7.79-.91,11.49-2.25,5.39-1.96,9.72-5.38,13.22-9.69,2.9-3.57,4.87-7.74,5.82-12.41.79-3.89,1.1-7.68.48-11.58-.75-4.7-2.39-9.07-5.07-12.99-3.09-4.53-7.2-7.98-12.09-10.37-1.66-.81-1.25-1.62-.74-2.65,2.78-5.55,3.96-11.37,3.15-17.56-.54-4.09-1.71-8-3.75-11.59-1.73-3.05-3.89-5.83-6.56-8.12-2.97-2.54-6.23-4.63-10-5.85-1.84-.6-3.6-1.42-5.59-1.51-.45-.02-1.4-.06-.96-1.08.83-1.92,1-3.96,1.23-6,.4-3.57.24-7.13-.53-10.62-.91-4.09-2.59-7.89-5.1-11.24-2.56-3.42-5.67-6.32-9.43-8.47-3.44-1.96-7.09-3.21-11.01-3.89-4.22-.74-8.38-.47-12.43.52-4.33,1.06-8.34,2.97-11.87,5.89-4.96,4.11-8.45,9.07-10.32,15.26-1.81,5.99-1.77,11.93-.06,17.88.38,1.31-.02,1.72-1.16,1.88-4.62.64-8.73,2.49-12.48,5.21-6.98,5.05-11.21,11.72-12.73,20.28-1.25,7.05.12,13.53,3.13,19.81.43.9.33,1.18-.51,1.6-4.88,2.44-8.96,5.78-12.21,10.25-3.64,5.02-5.43,10.58-5.74,16.67-.27,5.29.81,10.29,3.14,15.11,2.11,4.37,5.1,7.97,8.83,10.89,3.97,3.11,8.54,5.04,13.57,6.04,4.96.98,9.78.56,14.49-.79,3.75-1.08,7.23-2.92,10.3-5.41.69-.56,1.14-.57,1.86-.03,3.82,2.86,8.01,4.91,12.71,6.02,5.31,1.26,10.51.86,15.63-.58,3.45-.97,6.72-2.54,9.51-4.86,1.36-1.13,2.53-1.12,3.71.11.54.57,1.23.87,1.86,1.29,4.96,3.27,10.47,4.61,16.2,4.85ZM167.01,196.74h0c0-4.8-.02-9.6.02-14.41,0-1-.23-1.41-1.3-1.35-1.39.08-2.79.02-4.19.02-4,0-3.96,0-3.94-4.05,0-1.02.24-1.36,1.29-1.32,2.29.08,4.58-.01,6.87.05.94.02,1.26-.26,1.25-1.23-.04-4.75-.04-9.49,0-14.24,0-.93-.29-1.2-1.16-1-4.53,1.04-9.06,1.04-13.58-.01-.79-.18-1.1-.05-1.09.84.02,9.21.02,18.43,0,27.64,0,.76.2,1.06,1.03,1.11,2.79.17,2.79.21,2.79,2.98,0,.5-.03,1.01,0,1.51.03.66-.28.81-.9.87-2.91.25-2.91.27-2.91,3.24,0,.39,0,.78,0,1.17q0,3.46,3.55,3.44,2.88-.02,2.88,2.87,0,2.54-2.55,2.56c-3.95.03-3.9.03-3.93,3.95,0,1.01.34,1.2,1.24,1.19,4.41-.03,8.82-.04,13.23.02,1.1.01,1.42-.3,1.41-1.41-.06-4.8-.03-9.6-.03-14.41Z"/>
      <path class="cls-1" d="M157.63,167.75c0,.39,0,.77,0,1.16.02.84.19,1.62-1.2,1.54-1.16-.07-1.58-.41-1.45-1.55.08-.71.06-1.44.01-2.15-.07-1.05,0-1.78,1.43-1.76,1.49.01,1.18.93,1.2,1.77,0,.33,0,.66,0,1Z"/>
      <path class="cls-1" d="M90.67,187.76c0,9.5-.03,18.99.03,28.49,0,1.3-.31,1.68-1.65,1.66-7.76-.07-15.53-.06-23.3,0-1.26,0-1.7-.23-1.69-1.63.06-18.83,0-37.65.12-56.48.01-2.05-.83-2.92-2.44-3.51-.74-.27-1.44-.57-2.06-1.07-1.55-1.24-3.15-1.5-4.83-.21-2.28,1.75-5,2.69-7.68,3.44-5.84,1.63-11.75,2-17.8.65-6.36-1.43-11.97-4.2-16.77-8.51-4.76-4.27-8.26-9.43-10.27-15.59-1.94-5.95-2.34-11.9-1.28-18.07,1.1-6.38,3.72-11.9,7.83-16.85,2.27-2.73,4.76-5.15,7.77-6.99,1.6-.98.74-2.27.42-3.22-1.86-5.49-2.16-11.01-1.27-16.74,1.43-9.21,5.84-16.58,12.9-22.51,3.52-2.96,7.41-5.24,11.87-6.46,1.11-.3.88-1.23.75-1.93-.42-2.27-.38-4.56-.29-6.84.24-6.04,2-11.56,5.08-16.79,3.17-5.38,7.5-9.52,12.77-12.64,4.19-2.48,8.77-4.01,13.66-4.66,5.98-.79,11.8-.13,17.39,1.87,3.22,1.15,6.22,2.87,9.04,4.96,3.12,2.31,5.77,4.97,8.05,8.05,3.55,4.8,5.58,10.21,6.41,16.11.48,3.45.6,6.88-.04,10.31-.19,1,.13,1.36,1.03,1.62,3.56,1.02,6.69,2.85,9.74,4.95,3.45,2.37,6.28,5.33,8.66,8.67,2.06,2.89,3.67,6.08,4.75,9.52,1.19,3.79,2,7.64,1.95,11.59-.04,3.77-.58,7.5-1.92,11.07-.77,2.05-.54,2.29,1.19,3.52,3,2.14,5.62,4.66,7.92,7.58,1.89,2.39,3.43,4.94,4.59,7.71,2.97,7.08,3.88,14.37,2.29,21.97-.86,4.11-2.35,7.96-4.49,11.5-1.97,3.25-4.45,6.13-7.39,8.61-1.9,1.6-3.86,3.05-6.02,4.25-7.74,4.29-15.91,5.78-24.67,4.07-4.58-.89-8.81-2.57-12.74-5.06-.4-.25-.7-.36-1.2-.07-1.72.99-3.46,1.99-5.27,2.79-1.03.45-1.21,1.05-1.21,2.04.03,9.61.02,19.22.02,28.83ZM117.67,154.63c4.04-.15,7.79-.91,11.49-2.25,5.39-1.96,9.72-5.38,13.22-9.69,2.9-3.57,4.87-7.74,5.82-12.41.79-3.89,1.1-7.68.48-11.58-.75-4.7-2.39-9.07-5.07-12.99-3.09-4.53-7.2-7.98-12.09-10.37-1.66-.81-1.25-1.62-.74-2.65,2.78-5.55,3.96-11.37,3.15-17.56-.54-4.09-1.71-8-3.75-11.59-1.73-3.05-3.89-5.83-6.56-8.12-2.97-2.54-6.23-4.63-10-5.85-1.84-.6-3.6-1.42-5.59-1.51-.45-.02-1.4-.06-.96-1.08.83-1.92,1-3.96,1.23-6,.4-3.57.24-7.13-.53-10.62-.91-4.09-2.59-7.89-5.1-11.24-2.56-3.42-5.67-6.32-9.43-8.47-3.44-1.96-7.09-3.21-11.01-3.89-4.22-.74-8.38-.47-12.43.52-4.33,1.06-8.34,2.97-11.87,5.89-4.96,4.11-8.45,9.07-10.32,15.26-1.81,5.99-1.77,11.93-.06,17.88.38,1.31-.02,1.72-1.16,1.88-4.62.64-8.73,2.49-12.48,5.21-6.98,5.05-11.21,11.72-12.73,20.28-1.25,7.05.12,13.53,3.13,19.81.43.9.33,1.18-.51,1.6-4.88,2.44-8.96,5.78-12.21,10.25-3.64,5.02-5.43,10.58-5.74,16.67-.27,5.29.81,10.29,3.14,15.11,2.11,4.37,5.1,7.97,8.83,10.89,3.97,3.11,8.54,5.04,13.57,6.04,4.96.98,9.78.56,14.49-.79,3.75-1.08,7.23-2.92,10.3-5.41.69-.56,1.14-.57,1.86-.03,3.82,2.86,8.01,4.91,12.71,6.02,5.31,1.26,10.51.86,15.63-.58,3.45-.97,6.72-2.54,9.51-4.86,1.36-1.13,2.53-1.12,3.71.11.54.57,1.23.87,1.86,1.29,4.96,3.27,10.47,4.61,16.2,4.85ZM85.32,196.74h0c0-4.8-.02-9.6.02-14.41,0-1-.23-1.41-1.3-1.35-1.39.08-2.79.02-4.19.02-4,0-3.96,0-3.94-4.05,0-1.02.24-1.36,1.29-1.32,2.29.08,4.58-.01,6.87.05.94.02,1.26-.26,1.25-1.23-.04-4.75-.04-9.49,0-14.24,0-.93-.29-1.2-1.16-1-4.53,1.04-9.06,1.04-13.58-.01-.79-.18-1.1-.05-1.09.84.02,9.21.02,18.43,0,27.64,0,.76.2,1.06,1.03,1.11,2.79.17,2.79.21,2.79,2.98,0,.5-.03,1.01,0,1.51.03.66-.28.81-.9.87-2.91.25-2.91.27-2.91,3.24,0,.39,0,.78,0,1.17q0,3.46,3.55,3.44,2.88-.02,2.88,2.87,0,2.54-2.55,2.56c-3.95.03-3.9.03-3.93,3.95,0,1.01.34,1.2,1.24,1.19,4.41-.03,8.82-.04,13.23.02,1.1.01,1.42-.3,1.41-1.41-.06-4.8-.03-9.6-.03-14.41Z"/>
      <path class="cls-1" d="M75.94,167.75c0,.39,0,.77,0,1.16.02.84.19,1.62-1.2,1.54-1.16-.07-1.58-.41-1.45-1.55.08-.71.06-1.44.01-2.15-.07-1.05,0-1.78,1.43-1.76,1.49.01,1.18.93,1.2,1.77,0,.33,0,.66,0,1Z"/>
    </g>
  </g>
</svg>