<?xml version="1.0" encoding="UTF-8"?>
<svg id="Capa_2" data-name="Capa 2" xmlns="http://www.w3.org/2000/svg" viewBox="0 0 215.87 117.14">
  <g id="Capa_1-2" data-name="Capa 1">
    <g>
      <g>
        <path d="M105.35,108.02l-9.52-.13-20.65-.05c-.66,0-1.25-.17-1.72-.64-.32-.31-.34-1.14-.27-1.73.72-5.72-3.07-10.64-8.86-11.22-6.96-.7-13.5,4.22-14.72,11.19-.09.53.26,1.05-.22,1.45-.83.68-7.59.2-9.11.16l-7.52-.22c-5.45-.16-10.86-.13-16.32-.34l-5.91-.22c-.52-.02-.34-.69-.55-.73-1.48-.29-2.02.45-2.82-.66-.48-.66.25-3.11.56-3.22.4-.14.94-.17,1.8-.21.03-13.01,0-25.97.03-38.98,0-.39.53-.93.29-1.18-.45-.47-6.53.16-7.19,4.12,1.5.2,2.85.94,3.58,2.06.92,1.42.85,3.03.55,4.57l-.59,3.06c-.22,1.15-.66,2.41-2.13,2.2-1.85-.26-2.66,1.63-3.93-.07-.19-.25,1-5.45.08-9.26-.72-3,.68-6.23,3.35-7.79,2-1.17,4.2-1.74,6.44-1.71.75-1.21,1.73-2.26,3.17-2.85l38.53-.06c-.09-2.25,1.83-4.81,4.41-4.91,15.26-.61,30.78.1,46.19-.35l6.35-.19c1.06-.03,2.38.32,2.39,1.68l.04,3.82h53.61c-.24-5.56,6.57-4.72,9.6-4.97,2.19-.18,10.13.12,12.6.4,2.02.23,3.56,2.4,3.23,4.57l21.08.04c1.61,0,2.92,1.5,3.51,2.95.47,3.95.32,8.3.57,12.39.51,8.14-.04,16.38.24,24.7.09,2.72.48,5.23.3,7.94-.33,4.82-6.03,2.87-11.69,3.42-5.02.48-9.99-.14-14.96.34-2.78.27-5.41-.06-8.17.27-3.38.41-6.92.06-10.35.17-1.64-1.5-.51-5.01-4.01-7.66,1.13,2.37,1.62,4.55,1.2,7.15-.79,4.88-5.03,8.96-9.82,9.68-6.38.97-11.47-2.91-11.99-9.59-.43,1.05-.93,1.02-1.81,1.02l-21.76-.12-17.11-.28ZM54.27,55.61h54.04c.08-.99.14-1.92.08-2.88l-19.53.23-24.33.29c-2.89.03-5.65-.02-8.37.12-1.18.06-2.12,1.15-1.89,2.24ZM187.18,55.61c.35-.43.42-1.22.08-1.61-.27-.3-1.01-.64-1.56-.64l-16.17.02c-1.3,0-2.6.95-2.19,2.21h19.84ZM204.48,61.17l8.06-.16c.24-.92-.26-2.27-1.21-2.56l-34.99-.16-8,.08c-4.25.04-8.49-.13-12.76-.13l-140.27-.02c-.29,0-.75.62-.57.76.25.2,1.54.39,2.09,1.25.33.52.05.99-.43,1.46,1.17.38,2.13.03,3.22.02l36.15-.09,23.76-.13,98.48-.17,26.47-.15ZM14.17,61.81c-.53-.32-1.15-.69-1.86-.24.49.4,1.1.32,1.86.24ZM206.24,63.64l-8.75.06,9.06,9.74c-.46-3.01-.22-6.36-.31-9.8ZM212.82,90.8l-.04-13.2-.19-13.96h-3.65s.11,5.49.11,5.49l.16,25.36c1.03-.58,2.25-.75,3.6-.82-.21-.98.02-1.87.02-2.87ZM174.33,85.75h8.44c.21-.61-.14-.99-.53-1.44-1.61-1.87-3.19-3.69-4.56-5.75-.51-.76-.35-1.3.29-1.88.52-.47,1.29-.22,1.75.38l3.04,3.91.34-17.23-20.96.18-.15,13.91c-.32,2.65-.02,5.14-.17,7.9h8.9s-5.51-5.85-5.51-5.85c-.51-.55-.81-1.09-.51-1.74.19-.42,1.06-1.12,1.63-.69l8.02,8.31ZM202.33,78.11c1.47,1.44,2.7,2.91,4.15,4.52.12-2.95.09-5.86-.11-8.74-.56.52-.84.81-1.37.87-.43.04-.87-.34-1.22-.7l-9.85-10.3-8.33.03c-.02,7.49.11,14.58-.25,21.97h20.44s-5.15-5.77-5.15-5.77c-.46-.59-.32-1.26-.06-1.74.2-.37,1.35-.53,1.76-.13ZM115.06,105.5h9.46s.14-15.68.14-15.68l.18-25.84-10.36.04c.15,4.85-.15,9.56.18,14.35l.21,15.57.2,11.55ZM127.1,63.91l-.02,41.86h9.79s.02-41.86.02-41.86h-9.79ZM159.3,70.42c.42-2.23.02-4.22.15-6.5l-9.34.02,5.07,5.35c.35.37-.3.95-.52,1.24s-1.12.6-1.47.22c-2.01-2.26-4.4-4.09-6.33-6.71-1.69-.22-3.66-.13-5.77-.07l15.15,15.13c.63.63.21,1.51-.22,1.85-.65.52-1.39.28-1.88-.41l-14.61-14.37-.13,19.48,19.85.1.05-15.32ZM91.56,64.27v20.86s20.65.23,20.65.23l-.09-12.61c-.56-2.92,0-5.8-.29-8.72l-14.93.2,12.44,14.2c.61.7.76,1.45.11,2.04-.72.65-1.38.41-1.98-.29l-13.98-15.98c-.71-.02-1.32-.04-1.92.07ZM27.5,104.23c.98.18,1.8.19,2.95.14v-40.14s-10.06.1-10.06.1v39.61c2.51.27,4.85-.12,7.11.3ZM33.04,64.17l-.03,40.37h9.79s.03-40.36.03-40.36h-9.79ZM45.46,70.08l-.06,15.04h20.03c-.03-7.15-.12-13.83.31-20.91l-20.15-.02c-.49,1.03-.26,2.16.71,2.84l10.22,12.29c.56.67.33,1.58-.26,1.92-.86.5-1.38.07-1.89-.55l-8.9-10.62ZM88.7,80.18l-7.48-8.21c-.05-.7-.05-1.34.46-1.61s.87-.29,1.58-.02l5.58,6.06.12-12.21h-20.81s-.1,20.95-.1,20.95l16.44-.05-11.79-12.75c-.12-.59-.21-1.18.1-1.55.25-.29,1.09-.32,1.64-.27l13.97,14.9c.62-1.85.07-3.44.29-5.23ZM14.52,74.54c-.18-3.43-.14-6.73-.1-10.18-.8-.11-1.56-.12-2.34.11l.06,25.74c1.08-1.35,1.5-2.77,1.92-4.2s.57-9.5.46-11.47ZM17.14,98.14c.2,2.54-.98,4.35-3.62,5.38,1.52.61,2.92.13,4.34.26v-39.1c0-.18-.3-.38-.44-.4-.11-.02-.48.04-.47.27l.06,17.31c0,2.86-.27,5.11-1.47,7.7-1.87,4.03-3.87,2.77-3.44,3.73.2.45,4.71.48,5.05,4.85ZM2.87,68.25c.45,2.16.35,4.21.22,6.27.47.04.74-.13.74-.4.04-1.78,1.83-5.52-.96-5.88ZM75.77,105.19c6.31.18,12.15-.21,18.1.2l18.73.1c-.41-5.99-.45-11.64-.35-17.7l-66.84-.07v16.89c.7.1,1.39.12,1.81-.1,1.44-7.55,8.45-12.93,15.85-12.92s13.39,5.98,12.71,13.6ZM183.21,94.09l16.98-.1c1.81-.01,3.73-.84,5.48.31l.04,10.08,1.2-.02-.17-9.65c-.04-2.11-.31-4.13-.21-6.43h-67.25s-.15,17.41-.15,17.41c1.42.11,2.81.09,4.38.05.97-7.63,8.93-12.37,16.09-11.55,6.22.71,11.49,4.77,12.6,11,3.4.1,6.68.04,9.96-.34v-10.09c.23-.21.67-.67,1.04-.68ZM14.4,97.58c-.43-.94-1.31-1.62-2.31-1.1v4.07c.87.25,1.77.08,2.24-.62s.48-1.44.06-2.34ZM194.93,104.55c-.15-1.92.07-3.55-.26-5.12-.2-.94-.12-1.58.83-2.31.33-.25.79-.28,1.21.06.35.28.37.64.41,1.14l.46,5.25c.04.4-.32.87.13,1.03.34.12.79.09,1.13-.07.44-.21-.02-.61,0-1.02.09-3.3-.73-6.5,1.55-6.65.48-.03.9.54,1.27,1.06-.43,2.14-.44,4.4.18,6.68l1.27-.24-.04-8.03c-3.87.1-7.39-.12-11.02.17-2.5.2-4.87.12-7.41.14.05.17-.42,10.37.97,8.24l.02-7.35c.4-.32.92-.61,1.24-.64,1.94-.14,1.13,6.7,1.36,8.07l2.03-.08-.31-6.74c-.04-.84.94-1.32,1.47-1.25.85.11,1.03.81,1.07,1.56l.31,6.32,2.13-.21ZM213.13,101.23c-.16-1.45.56-4.93-.84-4.93-.91,0-.96,3.17-.79,4.08.29.4,1.03.79,1.63.85ZM154.76,114.55c5.59,1.01,11.21-4.23,10.61-9.87-.3-2.77-1.72-4.7-4.18-5.84-2.85-1.32-6.22-.64-8.73,1.27-2.38,1.82-3.86,4.46-3.72,7.66s2.39,6.11,6.02,6.77ZM213.23,103.97c-1.47-.3-2.71-.89-3.78-1.75l-.02,2.19c1.3-.24,2.57.44,3.8-.44Z"/>
        <path d="M72.76,105.97c0,5.9-4.79,10.69-10.69,10.69s-10.69-4.79-10.69-10.69,4.79-10.69,10.69-10.69,10.69,4.79,10.69,10.69ZM69.76,103.74c-.98-3.74-4.31-6.02-8-5.92s-6.85,2.69-7.52,6.39c-.63,3.46.66,6.75,3.47,8.64s6.54,1.73,9.17-.26,3.77-5.4,2.87-8.84Z"/>
        <path d="M27.53,94.66c-2.06.07-5.67,1.09-5.67-1.33v-26.09c-.28-.45-.42-.95-.33-1.39.4-1.85,5.05-.76,7.08-.98.24.18.61.45.99.63v26.7c.01.78.22,1.22-.31,1.76s-.93.68-1.76.71ZM24.46,67.19l-.02,25.19h2.55s.02-25.18.02-25.18h-2.55Z"/>
        <path d="M39.28,94.92c-1.49-.33-2.77-.23-4.15-.38-.97-.1-1.45-1.45-1.45-2.2l-.09-21.97c0-1.5-1.22-5.01,1.64-5.44,1.43-.22,2.99-.06,4.53-.12.78-.03,1.53.3,1.98.79.6.66.47,1.4.46,2.2l-.14,7.78-.16,18.27c-.23.93-1.74,1.28-2.61,1.09ZM36.49,91.9c.9.34,1.83.53,2.85.45l.02-24.98h-3.49c.16,3.18-.18,6.07.18,9.09.41,3.49-.19,6.97.29,10.37.24,1.69.14,3.29.15,5.07Z"/>
        <path d="M157.22,112.5c-3.39.23-6.49-1.72-7.03-5.28-.51-3.34,2.28-6.51,5.54-6.92,3.49-.44,6.86,1.59,7.43,5.19s-2.37,6.77-5.95,7.01ZM160.64,106.36c0-2.25-2.12-3.77-4.12-3.57-2.1.2-3.83,1.57-3.8,3.84.02,2,2.07,3.46,4,3.38s3.92-1.45,3.92-3.65Z"/>
        <path d="M63.12,111.69c-3.33.62-6.4-2.05-6.84-5.3s1.76-6.44,5.11-7,6.33,1.98,6.82,5.14-1.59,6.51-5.1,7.16ZM61.14,108.92c1.66.37,3.24-.12,3.95-1.31.88-1.48.86-2.67.06-4.07s-2.11-1.79-3.81-1.44c-1.46.3-2.48,1.89-2.5,3.31s.76,3.16,2.3,3.51Z"/>
        <path d="M158.47,106.71c-.64.65-1.25.94-1.81.6-.68-.42-1.18-1.08-.69-1.81.43-.64,1.29-.82,1.93-.5s1.2,1.08.57,1.71Z"/>
        <path d="M61.17,104.51c.76-.31,1.51-.18,1.96.52.33.5.08,1.42-.55,1.67-.7.28-1.41.45-1.84-.26-.36-.59-.24-1.67.43-1.94Z"/>
      </g>
      <g>
        <path d="M82.97,34.7c-.22,4.62.45,8.06.24,12.34-.04.81-.78,1.13-1.38,1.16-.56.02-1.64-.17-1.68-.98l-.66-12.55c-6.32.67-12.98-.06-19.03.46-3.32.28-6.55-.15-9.76.28-2.09.28-4.12.08-6.25.2l.51,16.3c.03.89-.87,1.49-1.41,1.5-.67.02-1.75-.12-1.78-.94l-.32-6.9-.2-8.15c-.13-5.29-.22-10.52-.35-15.74l-.2-7.68c-.09-3.36-.2-6.71-.16-10.07.5-.61,1.44-1.28,2.3-1.3l9.94-.19c7.14-.14,14.19-.18,21.32-.33l13.9-.29c6.42-.13,12.74-.16,19.13-.28l12.7-.24c10.93-.2,21.71-.48,32.57-.64l21.43-.32,11.29-.25c4.33-.09,8.63-.13,12.98-.07,1.44.02,1.51,1.73,1.49,2.71l-.26,12.42c-.16,7.69-.32,15.24-.6,22.91l-.47,12.72c-.77.65-1.41,1.11-2.28.71-.69-.32-.94-1.19-.92-1.95l.17-6.36c.1-3.55.03-7.2.16-10.85l-6.33.21-13.85.16-14.45.43-11.9.09c.16,2.91-.12,5.78.21,8.63.17,1.48.14,2.9.18,4.36-.22.66-.87,1.14-1.42,1.31-.44.13-1.41-.4-1.66-.87l-.59-7.9c-.13-1.79-.05-3.53-.1-5.48l-11.87.38c-6.04.2-11.99.21-17.98.34l-9.95.22c-7.85.17-14.79.14-22.71.48ZM44.52,32.16c4.6-.25,9.26.25,13.81-.22,3.16-.33,6.21-.02,9.38-.34l13.71-.13,14.18-.42,13.08-.13,14.45-.42c6.09-.18,12.07-.21,18.13-.33l9.27-.19c6.13-.13,12.17-.21,18.24-.34l9.58-.21c5.75-.13,11.37,0,17.2-.25l.23-7.41c.19-6.17.2-12.07.36-18.4l-18.54.22-12.71.23c-3.49.06-6.89.12-10.48.17l.24,14.9c.01.79-.1,2.19-1.18,2.22l-8.37.2c-2.3.05-4.59.27-6.91.34-7.91.21-15.87.28-23.96.58-8.8.33-17.56.03-26.34.77l-1.4-.86c-.74-4.41-.62-8.81-.74-13.24-.04-1.26-.64-2.45-.56-3.76l-23.22.55c-6.02.14-11.87-.11-18.01.29l.04,8.87.54,17.33ZM88.72,5.13l.41,6.24.26,8.09c2.2-.08,4.39-.08,6.59-.15l7.04-.21c5.76-.17,11.44-.19,17.13-.36l6.72-.2c8.53-.26,15.69-.11,24.32-.67V3.95c-2.75.05-5.13.1-7.64.16l-11.59.28c-6.75.16-13.54.25-20.42.38l-11.02.21c1.26.3,1.94.98,2.3,1.81.43.99.12,2.25-.07,3.21.99.41,2.01.78,2.41,1.78.42,1.05.22,2.29-.52,3.2-1.73,2.1-6.92,2.96-8.22,2.1-.73-.48-.35-1.45-.72-2.26-.9-2-2.54-3.99-2.55-6.34-.01-1.91,2.38-2.46,4.14-3.26l-8.57-.08ZM97.44,10.47c.85-.6,1.74-1.17,2.25-2.16-.98.03-1.8.25-2.72.51-.24.07-.3.69-.21.99.07.24.38.5.68.66ZM101.61,13.29c-.9-.1-1.88-.26-2.76.15.61.88,1.99.22,2.76-.15Z"/>
        <path d="M141.66,16.86c-1.68,1.87-5.9.93-6.57-.05-.43-.64-.47-1.82.46-2.32,1.01-.55,2.52-.16,3.46.32,1.29-2.21-6.33.24-7.77-3.58-.31-.83.03-1.93.53-2.66,1.31-1.91,3.75-3.03,5.97-2.46.68.18,1.16.78,1.36,1.25.25.58-.08,1.41-.51,1.75-1.49,1.14-1.63-.92-3.89,1.01,2.38.24,6.66.19,7.63,2.59.56,1.39.32,3.07-.65,4.15Z"/>
        <path d="M118.96,12.85c2.24-.89-1.31-6.39,2.16-6.16,1.56.1,1.16.87,1.68,2.15,1.04,2.55-.15,7.43-3.64,7.31-4.06-.14-6.86-5.36-6.36-8.95.15-1.08,1.37-.95,2.03-.83,1.86.35.37,4.48,4.14,6.48Z"/>
      </g>
    </g>
  </g>
</svg>