<svg width="13334" height="6780" viewBox="0 0 13334 6780" fill="none" xmlns="http://www.w3.org/2000/svg">
<path d="M826.321 2633.57C815.289 2633.57 793.058 2622.54 762.468 2597.55C703.137 2549.08 709.313 2157.85 739.819 1901.27C751.899 1799.66 825.987 1703.52 865.185 1622.62C927.118 1494.79 998.825 1396.96 1062.76 1313.47C1191.11 1145.86 1299.37 1085.05 1377.68 1015.18C1444.66 955.417 1616.29 851.369 1728.7 792.196C1796.08 756.73 1862.34 722.66 1970.91 664.156C2062.06 615.038 2174.25 572.221 2374.42 494.327C2552.55 425.01 2686.42 394.035 2798.41 357.595C2894.91 326.196 3026.41 299.091 3118.84 274.018C3222.56 245.885 3399.5 210.165 3617.05 190.357C3689.85 183.729 3756.71 170.883 3889.68 162.526C4374.66 132.043 4586.96 282.041 4670.54 346.061C4759.88 414.496 4793.23 504.691 4821.23 591.193C4855.01 695.556 4827 855.715 4801.92 928.344C4789.33 964.807 4754.62 995.289 4721.27 1023.12C4705.73 1036.09 4687.92 1039.92 4679.4 998.632C4653.15 871.489 4676.39 761.607 4690.26 728.26C4721.75 652.576 4815.29 594.62 4887.92 533.191C4947.09 483.147 5021.56 449.53 5124.53 393.951C5267.15 316.969 5428.08 271.343 5747.77 171.218C5902.6 122.723 6024.16 87.4733 6146.93 67.8327C6322.29 39.7792 6475.81 14.9283 6670.38 6.48699C6931.43 -4.83888 7311.58 3.56178 7434.02 12.0031C7575.98 21.7901 7895.28 109.203 8033.19 154.001C8121.27 182.615 8225.25 198.464 8375.52 256.968C8503.21 306.681 8581.95 337.871 8665.53 393.449C8747.83 448.179 8771.51 527.089 8813.38 652.288C8845.4 748.044 8849.73 916.225 8813.71 1045.27C8799.22 1097.2 8749.61 1123.5 8710.75 1140.21C8689.59 1149.31 8660.85 1145.9 8641.13 1134.86C8565.5 1092.57 8571.26 995.791 8551.7 909.539C8531.51 820.489 8554.37 744.892 8571 714.302C8607.74 646.733 8693.28 583.588 8774.18 535.949C8883.05 471.844 8949.69 449.53 9033.27 413.341C9134.36 369.567 9261.6 360.269 9353.62 343.637C9456.53 325.037 9556.8 315.806 9848.73 312.881C10010.2 311.263 10219.1 382.334 10339.9 413.09C10435.7 437.465 10532 460.562 10707.2 518.815C10776 541.682 10838.5 560.688 10908 591.277C10980.3 623.14 11204.8 699.426 11527.5 832.898C11767.3 932.107 11891.6 1006.49 12002.4 1061.82C12211.1 1166 12447.9 1367.71 12659.4 1565.12C12919.8 1808.28 12961.4 1953.25 13003.4 2073.02C13044.4 2190.27 13067.5 2309.96 13078.7 2396.13C13113.2 2663.8 13084.4 3023.04 13062.1 3156.85C13048.4 3238.82 12989.8 3334.95 12925.8 3438.33C12850.8 3559.39 12744.8 3614.1 12680.6 3622.62C12641.6 3627.8 12644.1 3514.47 12652.4 3422.62C12661.5 3321.35 12760.8 3280.12 12833.3 3257.64C12926.3 3228.77 12994.8 3324.25 13047.9 3385.51C13108.6 3455.57 13167.7 3519.15 13215.1 3602.73C13264 3688.98 13290.4 3775.23 13312.7 3870.18C13361 4075.86 13307.4 4416.1 13279.4 4494.25C13246.1 4587.31 13196.1 4677.87 13156.9 4758.94C13108.8 4858.4 13017.9 4951 12934.2 5056.89C12853.5 5158.92 12767.2 5279.62 12561.5 5466.09C12323.1 5682.21 12032.4 5842.27 11906.2 5926.26C11802.3 5995.49 11697.4 6043.19 11422.2 6187.86C11330.5 6236.09 11229.5 6254.97 11076.9 6318.82C10697.4 6477.62 10544 6478.12 10355.5 6492C10014 6517.12 9752.7 6489.32 9691.52 6480.96C9563.92 6463.53 9418.39 6422.63 9351.45 6394.63C9279.84 6364.68 9190.06 6311.3 9136.82 6244.36C9089.08 6184.32 9089.43 6082.97 9094.78 5910.47C9096.05 5869.52 9127.88 5848.95 9147.52 5840.34C9167.16 5831.74 9183.71 5837.25 9194.99 5851.13C9245.63 5913.39 9234.19 6081.3 9214.8 6193.71C9201.39 6271.48 9117.52 6305.28 9033.94 6355.35C8952.14 6404.34 8844.72 6422.29 8752.53 6430.73C8649.14 6440.2 8515.76 6455.72 7941.08 6455.89C7711.71 6455.96 7513.84 6383.85 7381.87 6358.36C7309.09 6344.3 7212.29 6299.94 7047.89 6247.11C6881.61 6193.69 6694.44 6110.72 6565.65 6060.4C6488.82 6030.39 6404.27 5999.06 6220.65 5912.97C5988.89 5804.32 5841.29 5709.55 5790.98 5587.19C5758.21 5507.5 5757.38 5408.83 5773.93 5317.07C5789.92 5228.37 5874.22 5202.23 5910.32 5188.36C5953.18 5171.89 6018.81 5157.6 6093.94 5168.63C6201.76 5184.46 6186.3 5374.23 6189.22 5569.22C6190.68 5666.37 6136.48 5753.34 6094.61 5825.97C6054.16 5896.14 6002.76 5976.32 5941.5 6046.03C5867.05 6130.74 5791.14 6188.28 5710.32 6254.97C5640.47 6312.61 5446.8 6415.94 5215.3 6508.38C4939.39 6618.54 4732.39 6678.71 4607.94 6692.5C4322.28 6724.15 4097.37 6762.28 4016.8 6765.04C3974.78 6766.48 3930.71 6773.32 3723.19 6776.16C3515.67 6779 3146.09 6779 2941.91 6773.48C2652.33 6765.66 2554.03 6695.76 2467.53 6642.69C2383.23 6590.97 2248.14 6434.66 2110.99 6070.01C2030.08 5854.89 2063.26 5522.67 2082.65 5311.13C2090.77 5222.58 2180.11 5180 2213.45 5166.04C2229.18 5159.46 2246.8 5168.63 2260.84 5182.51C2325.56 5246.46 2314 5341.14 2302.96 5402.32C2292.3 5461.45 2230.59 5486.23 2197.24 5505.7C2135.48 5541.76 1853.99 5542.06 1620.81 5511.55C1505.26 5496.43 1389.63 5391.95 1278.22 5330.69C1009.44 5182.89 943.664 5068.68 762.97 4885.39C637.553 4758.18 614.704 4662.16 548.009 4545.15C495.803 4453.56 425.485 4333.86 377.93 4235.75C337.935 4153.23 302.794 4071.43 274.795 3998.97C239.165 3906.76 169.404 3705.03 138.23 3550.5C106.111 3391.28 57.4109 3147.07 43.5371 3035.07C32.5154 2946.1 23.9801 2823.79 10.1062 2615.27C-20.8487 2150.01 35.0122 2038.17 60.0854 1948.49C80.5873 1875.16 129.622 1803.82 163.136 1731.19C201.442 1648.17 340.571 1514.64 483.237 1402.48C552.232 1348.24 625.402 1335.45 703.463 1351.91C794.128 1371.04 776.175 1541.05 790.049 1630.31C802.975 1713.47 820.638 1780.75 831.837 1883.71C845.743 2011.56 870.784 2109.37 865.435 2323.5C864.206 2372.71 832.339 2393.54 815.456 2393.87C787.542 2372.14 770.659 2332.86 759.543 2299.51C753.943 2282.71 748.427 2266.16 742.744 2215.68" stroke="black" stroke-width="2" stroke-linecap="round"/>
</svg>
